<?xml version="1.0" encoding="utf-8" standalone="no"?>
<!DOCTYPE svg PUBLIC "-//W3C//DTD SVG 1.1//EN"
  "http://www.w3.org/Graphics/SVG/1.1/DTD/svg11.dtd">
<svg xmlns:xlink="http://www.w3.org/1999/xlink" width="260.398124pt" height="209.99952pt" viewBox="0 0 260.398124 209.99952" xmlns="http://www.w3.org/2000/svg" version="1.1">
 <metadata>
  <rdf:RDF xmlns:dc="http://purl.org/dc/elements/1.1/" xmlns:cc="http://creativecommons.org/ns#" xmlns:rdf="http://www.w3.org/1999/02/22-rdf-syntax-ns#">
   <cc:Work>
    <dc:type rdf:resource="http://purl.org/dc/dcmitype/StillImage"/>
    <dc:date>2026-04-15T15:27:41.586203</dc:date>
    <dc:format>image/svg+xml</dc:format>
    <dc:creator>
     <cc:Agent>
      <dc:title>Matplotlib v3.10.8, https://matplotlib.org/</dc:title>
     </cc:Agent>
    </dc:creator>
   </cc:Work>
  </rdf:RDF>
 </metadata>
 <defs>
  <style type="text/css">*{stroke-linejoin: round; stroke-linecap: butt}</style>
 </defs>
 <g id="figure_1">
  <g id="patch_1">
   <path d="M -0 209.99952 
L 260.398124 209.99952 
L 260.398124 -0 
L -0 -0 
z
" style="fill: #ffffff"/>
  </g>
  <g id="axes_1">
   <g id="patch_2">
    <path d="M 38.028438 180.524833 
L 241.414262 180.524833 
L 241.414262 19.27875 
L 38.028438 19.27875 
z
" style="fill: #ffffff"/>
   </g>
   <g id="matplotlib.axis_1">
    <g id="xtick_1">
     <g id="line2d_1">
      <defs>
       <path id="m6acf947869" d="M 0 0 
L 0 -3.5 
" style="stroke: #000000; stroke-width: 0.8"/>
      </defs>
      <g>
       <use xlink:href="#m6acf947869" x="54.954226" y="180.524833" style="stroke: #000000; stroke-width: 0.8"/>
      </g>
     </g>
     <g id="text_1">
      <text style="font-size: 7px; font-family: 'Arial', 'DejaVu Sans', 'Helvetica', 'Liberation Sans', sans-serif; text-anchor: middle" x="54.954226" y="189.343739" transform="rotate(-0 54.954226 189.343739)">0.00096</text>
     </g>
    </g>
    <g id="xtick_2">
     <g id="line2d_2">
      <g>
       <use xlink:href="#m6acf947869" x="91.708287" y="180.524833" style="stroke: #000000; stroke-width: 0.8"/>
      </g>
     </g>
     <g id="text_2">
      <text style="font-size: 7px; font-family: 'Arial', 'DejaVu Sans', 'Helvetica', 'Liberation Sans', sans-serif; text-anchor: middle" x="91.708287" y="189.343739" transform="rotate(-0 91.708287 189.343739)">0.00098</text>
     </g>
    </g>
    <g id="xtick_3">
     <g id="line2d_3">
      <g>
       <use xlink:href="#m6acf947869" x="128.462348" y="180.524833" style="stroke: #000000; stroke-width: 0.8"/>
      </g>
     </g>
     <g id="text_3">
      <text style="font-size: 7px; font-family: 'Arial', 'DejaVu Sans', 'Helvetica', 'Liberation Sans', sans-serif; text-anchor: middle" x="128.462348" y="189.343739" transform="rotate(-0 128.462348 189.343739)">0.00100</text>
     </g>
    </g>
    <g id="xtick_4">
     <g id="line2d_4">
      <g>
       <use xlink:href="#m6acf947869" x="165.216409" y="180.524833" style="stroke: #000000; stroke-width: 0.8"/>
      </g>
     </g>
     <g id="text_4">
      <text style="font-size: 7px; font-family: 'Arial', 'DejaVu Sans', 'Helvetica', 'Liberation Sans', sans-serif; text-anchor: middle" x="165.216409" y="189.343739" transform="rotate(-0 165.216409 189.343739)">0.00102</text>
     </g>
    </g>
    <g id="xtick_5">
     <g id="line2d_5">
      <g>
       <use xlink:href="#m6acf947869" x="201.97047" y="180.524833" style="stroke: #000000; stroke-width: 0.8"/>
      </g>
     </g>
     <g id="text_5">
      <text style="font-size: 7px; font-family: 'Arial', 'DejaVu Sans', 'Helvetica', 'Liberation Sans', sans-serif; text-anchor: middle" x="201.97047" y="189.343739" transform="rotate(-0 201.97047 189.343739)">0.00104</text>
     </g>
    </g>
    <g id="xtick_6">
     <g id="line2d_6">
      <g>
       <use xlink:href="#m6acf947869" x="238.724531" y="180.524833" style="stroke: #000000; stroke-width: 0.8"/>
      </g>
     </g>
     <g id="text_6">
      <text style="font-size: 7px; font-family: 'Arial', 'DejaVu Sans', 'Helvetica', 'Liberation Sans', sans-serif; text-anchor: middle" x="238.724531" y="189.343739" transform="rotate(-0 238.724531 189.343739)">0.00106</text>
     </g>
    </g>
    <g id="text_7">
     <text style="font-size: 8px; font-family: 'Arial', 'DejaVu Sans', 'Helvetica', 'Liberation Sans', sans-serif; text-anchor: middle" x="139.72135" y="200.91327" transform="rotate(-0 139.72135 200.91327)">|Current| (A)</text>
    </g>
   </g>
   <g id="matplotlib.axis_2">
    <g id="ytick_1">
     <g id="line2d_7">
      <defs>
       <path id="mb178f0d0a1" d="M 0 0 
L 3.5 0 
" style="stroke: #000000; stroke-width: 0.8"/>
      </defs>
      <g>
       <use xlink:href="#mb178f0d0a1" x="38.028438" y="176.552427" style="stroke: #000000; stroke-width: 0.8"/>
      </g>
     </g>
     <g id="text_8">
      <text style="font-size: 7px; font-family: 'Arial', 'DejaVu Sans', 'Helvetica', 'Liberation Sans', sans-serif; text-anchor: end" x="34.528438" y="179.21188" transform="rotate(-0 34.528438 179.21188)">0.00</text>
     </g>
    </g>
    <g id="ytick_2">
     <g id="line2d_8">
      <g>
       <use xlink:href="#mb178f0d0a1" x="38.028438" y="154.17268" style="stroke: #000000; stroke-width: 0.8"/>
      </g>
     </g>
     <g id="text_9">
      <text style="font-size: 7px; font-family: 'Arial', 'DejaVu Sans', 'Helvetica', 'Liberation Sans', sans-serif; text-anchor: end" x="34.528438" y="156.832133" transform="rotate(-0 34.528438 156.832133)">0.02</text>
     </g>
    </g>
    <g id="ytick_3">
     <g id="line2d_9">
      <g>
       <use xlink:href="#mb178f0d0a1" x="38.028438" y="131.792932" style="stroke: #000000; stroke-width: 0.8"/>
      </g>
     </g>
     <g id="text_10">
      <text style="font-size: 7px; font-family: 'Arial', 'DejaVu Sans', 'Helvetica', 'Liberation Sans', sans-serif; text-anchor: end" x="34.528438" y="134.452385" transform="rotate(-0 34.528438 134.452385)">0.04</text>
     </g>
    </g>
    <g id="ytick_4">
     <g id="line2d_10">
      <g>
       <use xlink:href="#mb178f0d0a1" x="38.028438" y="109.413184" style="stroke: #000000; stroke-width: 0.8"/>
      </g>
     </g>
     <g id="text_11">
      <text style="font-size: 7px; font-family: 'Arial', 'DejaVu Sans', 'Helvetica', 'Liberation Sans', sans-serif; text-anchor: end" x="34.528438" y="112.072637" transform="rotate(-0 34.528438 112.072637)">0.06</text>
     </g>
    </g>
    <g id="ytick_5">
     <g id="line2d_11">
      <g>
       <use xlink:href="#mb178f0d0a1" x="38.028438" y="87.033436" style="stroke: #000000; stroke-width: 0.8"/>
      </g>
     </g>
     <g id="text_12">
      <text style="font-size: 7px; font-family: 'Arial', 'DejaVu Sans', 'Helvetica', 'Liberation Sans', sans-serif; text-anchor: end" x="34.528438" y="89.692889" transform="rotate(-0 34.528438 89.692889)">0.08</text>
     </g>
    </g>
    <g id="ytick_6">
     <g id="line2d_12">
      <g>
       <use xlink:href="#mb178f0d0a1" x="38.028438" y="64.653689" style="stroke: #000000; stroke-width: 0.8"/>
      </g>
     </g>
     <g id="text_13">
      <text style="font-size: 7px; font-family: 'Arial', 'DejaVu Sans', 'Helvetica', 'Liberation Sans', sans-serif; text-anchor: end" x="34.528438" y="67.313142" transform="rotate(-0 34.528438 67.313142)">0.10</text>
     </g>
    </g>
    <g id="ytick_7">
     <g id="line2d_13">
      <g>
       <use xlink:href="#mb178f0d0a1" x="38.028438" y="42.273941" style="stroke: #000000; stroke-width: 0.8"/>
      </g>
     </g>
     <g id="text_14">
      <text style="font-size: 7px; font-family: 'Arial', 'DejaVu Sans', 'Helvetica', 'Liberation Sans', sans-serif; text-anchor: end" x="34.528438" y="44.933394" transform="rotate(-0 34.528438 44.933394)">0.12</text>
     </g>
    </g>
    <g id="ytick_8">
     <g id="line2d_14">
      <g>
       <use xlink:href="#mb178f0d0a1" x="38.028438" y="19.894193" style="stroke: #000000; stroke-width: 0.8"/>
      </g>
     </g>
     <g id="text_15">
      <text style="font-size: 7px; font-family: 'Arial', 'DejaVu Sans', 'Helvetica', 'Liberation Sans', sans-serif; text-anchor: end" x="34.528438" y="22.553646" transform="rotate(-0 34.528438 22.553646)">0.14</text>
     </g>
    </g>
    <g id="text_16">
     <text style="font-size: 8px; font-family: 'Arial', 'DejaVu Sans', 'Helvetica', 'Liberation Sans', sans-serif; text-anchor: middle" x="13.27875" y="99.901791" transform="rotate(-90 13.27875 99.901791)">Capacity (Ah)</text>
    </g>
   </g>
   <g id="line2d_15">
    <path d="M 139.72135 173.195465 
" clip-path="url(#pb7d7bfa651)" style="fill: none; stroke: #0072b2; stroke-linecap: square"/>
    <defs>
     <path id="m814c82fb02" d="M 0 2 
C 0.530406 2 1.03916 1.789267 1.414214 1.414214 
C 1.789267 1.03916 2 0.530406 2 0 
C 2 -0.530406 1.789267 -1.03916 1.414214 -1.414214 
C 1.03916 -1.789267 0.530406 -2 0 -2 
C -0.530406 -2 -1.03916 -1.789267 -1.414214 -1.414214 
C -1.789267 -1.03916 -2 -0.530406 -2 0 
C -2 0.530406 -1.789267 1.03916 -1.414214 1.414214 
C -1.03916 1.789267 -0.530406 2 0 2 
z
" style="stroke: #0072b2"/>
    </defs>
    <g clip-path="url(#pb7d7bfa651)">
     <use xlink:href="#m814c82fb02" x="139.72135" y="173.195465" style="fill: #0072b2; stroke: #0072b2"/>
    </g>
   </g>
   <g id="line2d_16">
    <path d="M 139.72135 26.608117 
" clip-path="url(#pb7d7bfa651)" style="fill: none; stroke-dasharray: 3.7,1.6; stroke-dashoffset: 0; stroke: #d55e00"/>
    <defs>
     <path id="mf9c028f9c4" d="M 0 2 
C 0.530406 2 1.03916 1.789267 1.414214 1.414214 
C 1.789267 1.03916 2 0.530406 2 0 
C 2 -0.530406 1.789267 -1.03916 1.414214 -1.414214 
C 1.03916 -1.789267 0.530406 -2 0 -2 
C -0.530406 -2 -1.03916 -1.789267 -1.414214 -1.414214 
C -1.789267 -1.03916 -2 -0.530406 -2 0 
C -2 0.530406 -1.789267 1.03916 -1.414214 1.414214 
C -1.03916 1.789267 -0.530406 2 0 2 
z
" style="stroke: #d55e00"/>
    </defs>
    <g clip-path="url(#pb7d7bfa651)">
     <use xlink:href="#mf9c028f9c4" x="139.72135" y="26.608117" style="fill-opacity: 0; stroke: #d55e00"/>
    </g>
   </g>
   <g id="patch_3">
    <path d="M 38.028438 180.524833 
L 38.028438 19.27875 
" style="fill: none; stroke: #000000; stroke-width: 0.8; stroke-linejoin: miter; stroke-linecap: square"/>
   </g>
   <g id="patch_4">
    <path d="M 38.028438 180.524833 
L 241.414262 180.524833 
" style="fill: none; stroke: #000000; stroke-width: 0.8; stroke-linejoin: miter; stroke-linecap: square"/>
   </g>
   <g id="text_17">
    <text style="font-size: 8px; font-family: 'Arial', 'DejaVu Sans', 'Helvetica', 'Liberation Sans', sans-serif; text-anchor: middle" x="139.72135" y="13.27875" transform="rotate(-0 139.72135 13.27875)">Rate Capability: Capacity vs. C-rate</text>
   </g>
   <g id="legend_1">
    <g id="patch_5">
     <path d="M 179.051918 45.428125 
L 236.514262 45.428125 
Q 237.914262 45.428125 237.914262 44.028125 
L 237.914262 24.17875 
Q 237.914262 22.77875 236.514262 22.77875 
L 179.051918 22.77875 
Q 177.651918 22.77875 177.651918 24.17875 
L 177.651918 44.028125 
Q 177.651918 45.428125 179.051918 45.428125 
z
" style="fill: #ffffff; opacity: 0.8; stroke: #cccccc; stroke-linejoin: miter"/>
    </g>
    <g id="line2d_17">
     <path d="M 180.451918 28.447656 
L 187.451918 28.447656 
L 194.451918 28.447656 
" style="fill: none; stroke: #0072b2; stroke-linecap: square"/>
     <g>
      <use xlink:href="#m814c82fb02" x="187.451918" y="28.447656" style="fill: #0072b2; stroke: #0072b2"/>
     </g>
    </g>
    <g id="text_18">
     <text style="font-size: 7px; font-family: 'Arial', 'DejaVu Sans', 'Helvetica', 'Liberation Sans', sans-serif; text-anchor: start" x="200.051918" y="30.897656" transform="rotate(-0 200.051918 30.897656)">Discharge</text>
    </g>
    <g id="line2d_18">
     <path d="M 180.451918 38.722344 
L 187.451918 38.722344 
L 194.451918 38.722344 
" style="fill: none; stroke-dasharray: 3.7,1.6; stroke-dashoffset: 0; stroke: #d55e00"/>
     <g>
      <use xlink:href="#mf9c028f9c4" x="187.451918" y="38.722344" style="fill-opacity: 0; stroke: #d55e00"/>
     </g>
    </g>
    <g id="text_19">
     <text style="font-size: 7px; font-family: 'Arial', 'DejaVu Sans', 'Helvetica', 'Liberation Sans', sans-serif; text-anchor: start" x="200.051918" y="41.172344" transform="rotate(-0 200.051918 41.172344)">Charge</text>
    </g>
   </g>
  </g>
 </g>
 <defs>
  <clipPath id="pb7d7bfa651">
   <rect x="38.028438" y="19.27875" width="203.385825" height="161.246082"/>
  </clipPath>
 </defs>
</svg>
